<svg xmlns="http://www.w3.org/2000/svg" fill="none" viewBox="0 0 324.77272 320">
  <path fill="#5e464d" d="M161.61,0C249,0,319.77,71.64,319.77,160S249,320,161.61,320,3.45,248.38,3.45,160,74.26,0,161.61,0" />
  <path fill="#fff" d="M111.88,301.9c6.44,2.2,28.22,9.27,29.13,2.36.5-3.78-10.91-7.68-26.49-15.9a248.83,248.83,0,0,1-60-44.28,137.57,137.57,0,0,1-41.19-95.64C12,100,31.06,60.89,62.1,35.65a159.54,159.54,0,0,0-62,122.41c-.92,35.07,8.87,64.52,27.26,91.4A103.54,103.54,0,0,0,47.18,269c17.61,13.34,43.38,25.67,64.7,32.93" />
  <path fill="#fff" d="M322.7,123.16C312.88,77.05,282.46,44.75,241.63,22c31.17,22.21,75.06,69.39,49.2,111-21.95,33.37-75.27,26.84-104.42,11-34.57-18.85-78-61.16-35.25-102.5,27.72-26.77,116,3.22,100.4,43.24-9.06,23.26-44.29,18.09-60.16,6.71-11.68-8.4-21.52-22.82-16.32-37.72,1.61-4.83,1.43-12.19-5.31-6.73-5,4.07-7.57,10.79-8.45,17-7.37,52.16,85.48,92.58,113.11,42.12C288.74,80,265.55,42,236.37,26.36c-22-11.75-44.78-20-72.75-18C118.9,11.58,81.35,39.54,76.71,85.24,72,130.61,102.37,171.56,138.15,196c37.56,25.75,88.13,42.63,134.38,27.36,41.44-13.75,58.57-61.32,50.23-100.16" />
  <path fill="#3fe0c5" d="M263.62,88c4.44-29.88-22.53-50.4-47.53-59.72-29.42-11-68.29-6.18-89.71,18.19-15.72,17.89-14.64,43.88-6.58,64.87C132,143.11,159.62,166.06,191.73,176c22.82,7,50.4,10.1,73.55,2.67C299,167.8,310,132.62,303,100.4a94,94,0,0,0-6.82-20.19c-4.27-8.93-17.32-27,.67-5a79.74,79.74,0,0,1,5.2,7.69,85.62,85.62,0,0,1,8.76,19.44c9.8,30.08,2.11,65.18-25.13,83.32-20.92,13.9-47.36,15.56-71.55,12.09-32.45-4.64-63-20.44-84.22-45.58-19.41-23-32.64-56-24.66-86.2,5.83-22.09,23.76-38.55,45.21-45.5,27.15-8.79,57-4.72,81.5,9.56,12.25,7.15,23.45,17,29.68,30a44.17,44.17,0,0,1,4.47,18.69,38.27,38.27,0,0,1-.61,7.85c-.18.93-2.15,3.59-1.88,1.4" />
</svg>
